<?xml version="1.0" encoding="UTF-8"?><svg id="a" xmlns="http://www.w3.org/2000/svg" viewBox="0 0 800 600.7"><defs><style>.b{fill:none;}</style></defs><g><path class="b" d="M517.62,88.02c7.38,.05,13.35-5.41,13.4-12.26,.05-6.63-5.94-12.38-12.91-12.4-7.11-.02-13.33,5.84-13.27,12.51,.06,6.47,5.98,12.1,12.79,12.14Zm.12-20.6c5.38,0,9.62,3.63,9.64,8.27,.02,4.55-4.3,8.28-9.62,8.32-5.07,.04-9.09-3.6-9.17-8.32-.08-4.6,3.97-8.27,9.15-8.27Z"/><path class="b" d="M450.49,245.55c-4.93,.74-10.05,.12-15.48,.12,.5,.87,.57,1.15,.74,1.23,.41,.22,.86,.35,1.31,.5,9.88,3.28,19.44,1.97,28.58-2.46,17.69-8.57,28.23-23.5,35.91-40.71-7.76,8.54-15.29,17.38-23.44,25.6-7.66,7.72-16.51,14.04-27.62,15.7Z"/><path class="b" d="M430.72,237.59c-6.32,.93-12.88,.17-19.34,.17-.13,.27-.26,.54-.39,.8,3.6,1.52,7.07,3.6,10.82,4.46,9.87,2.27,18.7-1.15,26.87-6.31,11.63-7.34,20.14-17.83,28.16-28.75,.85-1.17,1.6-2.41,2.39-3.62-1.12,.16-1.72,.67-2.3,1.21-6.23,5.82-12.27,11.85-18.71,17.43-8.02,6.95-16.79,13.04-27.51,14.61Z"/><path class="b" d="M353.53,216.01c4.99-1.09,10.45-1.23,14.89-3.43,12.83-6.36,23.59-15.64,33.14-26.35-14.73,11.93-30.47,22.05-48.7,28.01l.67,1.78Z"/><path class="b" d="M438.51,223.49c8.35-6.37,14.64-14.56,20.12-23.42-1.31,.77-2.73,1.43-3.87,2.4-5.84,5-11.45,10.3-17.44,15.12-7.87,6.32-16.07,12.3-26.63,13.04-3.63,.25-7.32-.46-10.98-.74l-.35,.95c3.13,1.03,6.2,2.69,9.39,2.97,11.37,1.01,20.99-3.64,29.76-10.33Z"/><path class="b" d="M672.59,278.74c-1.49-.73-3-2.11-4.47-2.07-3.96,.1-7.91,.8-11.86,1.26-.06,.3-.12,.61-.19,.91,5.35,.51,10.7,1.01,16.05,1.52,.16-.54,.31-1.08,.47-1.63Z"/><path class="b" d="M334.1,243.04c6.64-2.29,13.46-4.18,19.88-6.98,10.6-4.62,19.92-11.41,28.62-18.95,10.77-9.33,21.24-19.01,31.84-28.54l-.58-.66c-26.55,18.2-53.09,36.41-79.64,54.61l-.12,.51Z"/><path class="b" d="M344.38,282.33c22.36,.85,43.74-3.87,64.6-11.43l-.18-1.05c-16.61,2.86-33.21,5.73-49.82,8.59,14.24-5.52,27.86-12.21,40.63-20.56-.17-.37-.34-.74-.51-1.11-18.36,8.18-36.72,16.36-55.07,24.55,.12,.34,.23,.67,.35,1.01Z"/><path class="b" d="M390.06,183.65l-35.2,27c.23,.32,.47,.64,.7,.96,8.88-2.93,30.75-20.07,34.5-27.96Z"/><path class="b" d="M501.23,359.37c-9,2.88-16.95,7.66-24.15,13.1h2.63c10.58-3.29,21.36-6.65,32.05-9.98-2.71-3.1-6.37-4.45-10.53-3.12Z"/><path class="b" d="M512.82,368.57c-5.46,1.02-10.82,2.32-16.08,3.9h19.42c.01-.54,.03-1.07,.03-1.61,0-2-1.13-2.71-3.36-2.29Z"/><path class="b" d="M566.92,371.13c-13.6-4.66-27.66-4.85-41.79-4.03-.92,.05-2.23,1.77-2.53,2.93-.22,.85-.48,1.66-.76,2.45h48.59c-1.15-.48-2.32-.93-3.52-1.34Z"/><path class="b" d="M417.69,370.21c-4.26-3.4-8.6-6.7-12.9-10.04-7.49-5.81-15.08-11.48-22.41-17.47-3.34-2.72-6.84-4.47-11.12-4.89-6.76-.67-10.9-4.66-13.08-10.88-.74-2.11-1.3-4.3-2.08-6.4-1.92-5.18-5.74-7.37-10.58-4.78-4.68,2.51-9.22,5.89-12.72,9.85-10.9,12.35-17.19,27.38-22.93,42.57-.54,1.43-1.07,2.86-1.61,4.29h51.73c-1.33-1.67-2.79-3.29-4.39-4.84-.33-.32-.57-.72-1.19-1.53,6.53,1.7,12.75,3.74,18.61,6.36h47.22c-.61-.66-1.45-1.39-2.54-2.26Z"/><path class="b" d="M629.05,209.99c5.34-4.34,7.6-10.52,10.6-17.33h-6.88c.25,2,.5,4,.81,6.51-2.78-1.87-5.28-1.69-5.08,1.14,.3,4.09-1.36,6.4-4.71,7.89,1.21,3.31,2.97,3.65,5.26,1.79Z"/><path class="b" d="M472.67,353.96c-9.4-4.71-18.8-9.43-28.32-13.9-4.58-2.15-9.31-4.75-14.18-5.34-8.27-1-11.62-5.69-13.02-13.02-.35-1.83-1.03-3.66-1.86-5.33-.61-1.23-1.49-2.61-2.62-3.24-10.93-6.02-22.8-3.73-27.51,8.07-1.22,3.05-2.07,6.3-2.65,9.53-.21,1.17,.52,3.04,1.46,3.78,9.65,7.65,19.4,15.17,29.19,22.65,11.51,8.79,24.2,13.81,39,11.9,4.09-.53,7.79,.42,11.29,3.4h1.64c3.22-3.83,6.18-7.39,9.19-10.89,3.68-4.28,3.61-5.01-1.59-7.62Z"/><path class="b" d="M398.92,233.3c-21.64,16.36-43.28,32.73-64.25,48.58,24.47-11.16,46.61-26.91,64.25-48.58Z"/><path d="M666.9,287.85c-6.84,1.65-9.6-3.69-13.16-7.15,6.5,0,13.02-.35,19.48,.13,3.9,.29,6.38-1.41,9.25-3.68-1.79-.7-3.23-1.27-5.09-1.99,1.15-1.01,1.89-1.56,2.52-2.22,2.01-2.09,1.36-4.83-.82-4.08-1.75,.6-2.99,2.72-5.16,4.86-16.04,6.92-31.68,1.01-47.31-6.34,4.68-2.12,8.99-3.77,13.9-.05,5.39,4.08,11.24,3.81,16.81-.08,2.86-2,5.65-4.09,8.71-6.31-1.16-.85-2.18-1.64-3.25-2.35-9.95-6.63-15.26-6.05-22.6,.67-1.51,1.39-3.56,2.34-5.52,3.05-4.44,1.6-8.93,3.08-13.48,4.31-5.46,1.48-11,2.64-16.58,3.96,2.16-4.96,4.39-9.54,6.15-14.29,1.76-4.74,3.17-9.63,4.49-14.52,1.18-4.37,3.54-8.02,7.49-9.9,5.93-2.82,12.19-4.96,18.36-7.28,.53-.2,1.61,.24,2.05,.73,4.67,5.12,9.72,3.43,13.7-.17,5.58-5.05,5.2-7.23-1.85-10.1-.98-.4-1.98-.82-3.01-1.05-4.62-1.06-8.48,.95-9.57,5.56-.58,2.45-1.88,3.21-3.93,3.62-6.76,1.34-12.71,4.31-17.95,8.79-1.38,1.18-2.92,2.18-4.51,3.35-.24-3.93-.46-7.48-.68-11.02-.19,.04-.37,.09-.56,.13-.56,1.68-1.12,3.36-1.68,5.05h0v.02h0c-.33,1.52-.66,3.05-1.2,5.55-1.68-5.14-2.44-9.66-7.18-12.13,6.43,12.48,5.44,18.96,3.03,24.93-.98-1.07-1.84-2.16-2.85-3.1-2.3-2.14-5.12-2.45-7.48-.64-5.25,4.01-8.28,9.67-10.06,15.9-.78,2.75,1.32,4.2,4.03,3.21,3.94-1.44,4.27-2.82,2.43-7.81-.45-1.21-.55-3.38,.17-4.02,1.37-1.23,3.4-2.03,5.24-2.26,.54-.07,1.71,2.28,2.07,3.65,1.78,6.86-.27,13.17-3.56,19.02-10.16,18.1-24.14,33.01-39.64,46.59-3.01,2.64-6.26,5.01-9.41,7.5,.18-2.31,.92-4.02,1.56-5.77,2.94-8.03,1.5-16.12,.28-24.2-.55-3.67-.32-7.07,2.62-9.82,8.23-7.69,12.41-17.43,14.13-28.35,1.72-10.91,5.66-20.72,13.59-28.67,.34-.34,.55-.83,1.15-1.76-13.36,4.4-25.58,9.63-36.23,18-10.1,7.93-14.44,18.27-13.59,31.11,.56,8.45,4.38,15.27,9.01,21.97,7.41,10.74,4.93,25.54-5.43,33.61-1.19,.93-2.5,1.71-3.8,2.59,.69-3.91,.6-7.69,2.03-10.76,4.02-8.56,2.11-15.77-3.59-22.65-3.86-4.66-6.15-10.06-6.67-16.15-.09-1.02-.44-2.02-.89-3.98-2.53,7.58-4.87,14.25-6.97,20.99-1.85,5.96-1.72,11.91,1.04,17.62,2.35,4.85,6.91,5.97,11.66,7.02,1,.22,2.23,2.1,2.31,3.28,.26,3.78-2.02,6.49-4.89,8.55-3.94,2.83-8.07,5.38-12.1,8.08-6.13,4.12-13.12,5.32-20.05,4.05-7.71-1.42-15.46-3.54-22.67-6.59-9.76-4.14-19.05-9.37-28.46-14.31-3.02-1.58-3.68-4.18-3.27-7.79,1.4-12.19,8.1-20.7,17.23-28.24,12.87-10.63,25.71-21.38,37.68-32.99,29.97-29.06,43.13-64.29,37.63-106.18-1.38-10.53-1.72-21.26-1.79-31.9-.07-11,4.52-20.46,13.11-27.22,5.5-4.33,11.84-7.84,18.25-10.71,6.71-3.01,13.96-4.82,21.08-7.18-5.02-3.95-10.98-6.24-17.29-7.14-11.8-1.69-22.1-5.94-31.18-13.98-3.98-3.52-9.54-6.39-14.74-7.2-24.52-3.85-45.36,3.38-61.37,22.81-8.61,10.45-13.2,22.92-16.61,35.77-3.25,12.23-9.59,22.31-19.16,30.43-4.97,4.21-9.83,8.6-15.11,12.39-29.16,20.93-52.23,47.17-69.94,78.37-9.34,16.46-19.35,32.54-29.29,48.65-4.66,7.55-9.87,14.77-15.14,22.59,20.72-12.69,35.36-31.18,52.31-47.2-1.17,2.29-2.38,4.55-3.87,6.61-4.86,6.69-9.82,13.31-14.74,19.96,3.11-3.06,6.11-6.25,9.35-9.15,19.51-17.46,39.08-34.84,58.61-52.28,12.28-10.97,24.52-21.98,36.76-32.99,.15-.14,.17-.42,.35-.91-14.73,2.36-28.79,2.05-40.89-9.19,1.05,0,1.65-.07,2.22,.02,.57,.09,1.11,.38,1.68,.53,13.08,3.45,26.35,5.38,39.52,1.24,6.45-2.03,12.49-5.51,18.49-8.74,5.09-2.74,9.77-6.23,14.8-9.1,3.86-2.2,7.97-3.95,12.27-5.29-12.36,8.63-24.73,17.26-37.46,26.15,4.31,4.59,9.36,6.07,14.94,5.27,13.13-1.87,23.48-7.74,28.43-20.87,.06-.15,.34-.23,.79-.51,.88,3.93-.21,7.3-2.21,10.4-4.53,7.06-11.55,10.33-19.38,11.97-5.61,1.18-11.34,1.83-17.75,2.83,8.06,6.1,16.46,8.98,26.02,7.99,9.54-.99,16.61-6.7,23.37-12.92,.29,.29,.59,.57,.88,.86-3.09,3.7-6.18,7.4-9.55,11.44,7.56-1.53,14.22-4.42,20.51-8.36-4.84,7.69-11.83,12.1-20.8,13.2-9.65,1.19-19.31,1.38-28.81-1.25h0c-3.09-1.58-6.35-2.93-9.23-4.85-4.49-3-8.71-6.41-13.16-9.73-12.59,11.82-25.6,24.04-39.19,36.8,15.76-6.08,28.28-16.22,41.94-24.69-2.5,2.33-4.98,4.7-7.52,6.99-2.55,2.3-5.04,4.7-7.8,6.73-5.61,4.14-11.25,8.27-17.12,12.01-3.68,2.35-7.73,4.07-12.43,2.39-.79-.28-2.3,.77-3.18,1.54-16.8,14.79-33.49,29.71-50.38,44.41-4.44,3.87-9.47,7.07-14.29,10.49-.36,.26-1.24-.21-1.88-.34-7.42,7.52-14.81,15.57-24.78,19.22-8.34,3.05-14.27,8.16-19.75,14.55-2.62,3.06-5.59,5.81-8.28,8.8-1.34,1.49-2.58,3.11-3.6,4.83-1.45,2.46-3.1,5.38-.97,7.9,2.37,2.81,5.69,1.31,8.15-.14,4.77-2.82,9.26-6.13,13.85-9.25,1.66-1.13,3.28-2.32,4.92-3.48-.01,1.63-.38,2.76-.92,3.79-7.85,14.85-15.36,29.89-23.43,44.61h-93.06v5.17h481.03v-5.17h-28.49c-6.45-2.32-13.71-2.82-21.64-1.96-5.17,.56-10.62,.13-15.75-.83-5.76-1.08-11.26-3.51-16.98-4.94-7.37-1.85-14.85-3.29-22.28-4.91-.16-.29-.33-.58-.49-.87,3.44-1.82,6.75-4.04,10.39-5.28,1.78-.6,4.93-.11,6.19,1.16,5.81,5.85,12.38,5.49,18.55,1.94,5.12-2.95,9.78-7.05,13.85-11.38,5.38-5.71,9.07-12.65,12.04-21.08-8.92,7.59-18.33,9.24-28.74,8.06-9.46-1.07-17.51,2.1-23.17,10.18-2.18,3.1-4.21,6.31-6.55,9.28-3.17,4.04-6.66,8-12.16,8.51-6.13,.57-12.3,.66-18.46,.79-.94,.02-2.22-.63-2.8-1.38-2.12-2.77-4.01-5.73-6.19-8.89,1.58-.94,3.46-2.11,5.39-3.19,18.36-10.3,35.34-22.55,50.72-36.89,9.61-8.96,18.31-18.92,28.02-27.76,4.79-4.36,10.6-8.18,16.62-10.47,7.3-2.78,14.84-2.27,19.36,5.37,.3,.5,.66,1.11,1.15,1.33,.96,.43,2.03,.63,3.05,.92-.11-1.06,.18-2.5-.4-3.1-1.85-1.93-4.03-3.56-6.08-5.31,7.66,2.88,14.8,6.58,21.05,11.99,4.17,3.61,6.69,8.06,8.69,13.12,2.85,7.23,8.09,9.21,15.12,6.03,3.18-1.44,6.17-3.29,9.42-5.05-5.25-7.04-10.88-12.27-20.2-10.01Zm-10.64-9.91c3.95-.46,7.9-1.16,11.86-1.26,1.47-.04,2.98,1.34,4.47,2.07-.16,.54-.31,1.08-.47,1.63-5.35-.51-10.7-1.01-16.05-1.52,.06-.3,.12-.61,.19-.91Zm-266.2-94.29c-3.75,7.89-25.62,25.03-34.5,27.96-.23-.32-.47-.64-.7-.96l35.2-27Zm24.38,4.92c-10.6,9.53-21.07,19.2-31.84,28.54-8.69,7.54-18.02,14.33-28.62,18.95-6.42,2.8-13.24,4.68-19.88,6.98l.12-.51c26.55-18.2,53.09-36.41,79.64-54.61l.58,.66Zm-12.89-2.36c-9.55,10.71-20.31,19.99-33.14,26.35-4.44,2.2-9.9,2.35-14.89,3.43l-.67-1.78c18.23-5.96,33.97-16.08,48.7-28.01Zm103.27-110.34c-.06-6.67,6.16-12.53,13.27-12.51,6.98,.02,12.96,5.77,12.91,12.4-.05,6.84-6.02,12.3-13.4,12.26-6.8-.04-12.73-5.67-12.79-12.14Zm-3.29,128.37c-7.68,17.21-18.22,32.15-35.91,40.71-9.14,4.43-18.71,5.74-28.58,2.46-.44-.15-.9-.29-1.31-.5-.17-.09-.23-.37-.74-1.23,5.43,0,10.56,.61,15.48-.12,11.1-1.66,19.96-7.98,27.62-15.7,8.15-8.22,15.68-17.07,23.44-25.6Zm-24.6,1.31c.58-.54,1.18-1.05,2.3-1.21-.8,1.21-1.54,2.45-2.39,3.62-8.01,10.93-16.53,21.41-28.16,28.75-8.18,5.16-17.01,8.58-26.87,6.31-3.75-.86-7.22-2.94-10.82-4.46,.13-.27,.26-.54,.39-.8,6.45,0,13.02,.76,19.34-.17,10.72-1.58,19.49-7.67,27.51-14.61,6.44-5.58,12.49-11.61,18.71-17.43Zm-77.24,24.34c3.66,.27,7.36,.99,10.98,.74,10.56-.74,18.77-6.72,26.63-13.04,5.99-4.81,11.59-10.11,17.44-15.12,1.14-.97,2.55-1.63,3.87-2.4-5.48,8.86-11.76,17.04-20.12,23.42-8.77,6.69-18.39,11.34-29.76,10.33-3.19-.28-6.26-1.94-9.39-2.97l.35-.95Zm-.08,27.99c-12.77,8.35-26.4,15.04-40.63,20.56,16.61-2.86,33.21-5.73,49.82-8.59l.18,1.05c-20.87,7.56-42.24,12.28-64.6,11.43-.12-.34-.23-.67-.35-1.01,18.36-8.18,36.72-16.36,55.07-24.55,.17,.37,.34,.74,.51,1.11Zm-.7-24.59c-17.64,21.68-39.78,37.43-64.25,48.58,20.97-15.86,42.61-32.22,64.25-48.58Zm-25.92,139.17c-5.87-2.63-12.09-4.66-18.61-6.36,.63,.81,.87,1.21,1.19,1.53,1.6,1.55,3.06,3.16,4.39,4.84h-51.73c.54-1.43,1.07-2.86,1.61-4.29,5.74-15.19,12.03-30.22,22.93-42.57,3.5-3.97,8.05-7.34,12.72-9.85,4.84-2.6,8.67-.4,10.58,4.78,.78,2.1,1.34,4.28,2.08,6.4,2.19,6.22,6.32,10.21,13.08,10.88,4.28,.43,7.78,2.17,11.12,4.89,7.34,5.99,14.93,11.67,22.41,17.47,4.31,3.34,8.65,6.63,12.9,10.04,1.09,.87,1.93,1.6,2.54,2.26h-47.22Zm90.44,0c-3.5-2.98-7.21-3.93-11.29-3.4-14.8,1.91-27.49-3.11-39-11.9-9.79-7.47-19.54-15-29.19-22.65-.94-.75-1.67-2.62-1.46-3.78,.57-3.24,1.43-6.48,2.65-9.53,4.72-11.8,16.59-14.09,27.51-8.07,1.14,.63,2.02,2.01,2.62,3.24,.83,1.68,1.5,3.5,1.86,5.33,1.4,7.33,4.76,12.02,13.02,13.02,4.88,.59,9.6,3.19,14.18,5.34,9.52,4.47,18.92,9.19,28.32,13.9,5.21,2.61,5.27,3.34,1.59,7.62-3.01,3.5-5.96,7.05-9.19,10.89h-1.64Zm13.63,0c7.2-5.44,15.16-10.21,24.15-13.1,4.16-1.33,7.82,.02,10.53,3.12-10.7,3.33-21.47,6.68-32.05,9.98h-2.63Zm45.53-2.45c.3-1.16,1.6-2.87,2.53-2.93,14.12-.82,28.18-.63,41.79,4.03,1.2,.41,2.36,.86,3.52,1.34h-48.59c.28-.79,.54-1.6,.76-2.45Zm-6.43,.84c0,.54-.02,1.07-.03,1.61h-19.42c5.27-1.57,10.63-2.87,16.08-3.9,2.23-.42,3.36,.29,3.36,2.29Z"/><path d="M170.52,172.33c-3.61,15.82-1.35,31,4.96,45.73,.53,1.24,1.41,2.32,2.21,3.6-.81-6.77-1.85-13.17-2.27-19.62-.38-5.72,.61-6.84,6.24-7.89,5.81-1.09,9.44-4.5,10.69-10.01,.93-4.09,1.47-8.43,1.2-12.6-.3-4.51-1.74-8.95-2.68-13.41-.33,.08-.66,.16-.98,.24-1.31,9.33-4.84,14.4-13.01,18.44,4.22-18.38,11.45-35.16,22.77-50.09,5.71-7.53,12.4-14.02,20.69-18.68,7.45-4.18,10.17-3.51,15.2,3.22,4.35,5.82,10.06,8.44,17.37,6.89,15.87-3.36,28.97-11.35,39.24-23.86,2.85-3.47,5.14-7.41,7.69-11.13-1.51-.18-2.35,.19-3.17,.58-8.21,3.88-16.52,4.58-25.05,1-2.5-1.05-5.11-1.84-7.69-2.7-12.49-4.15-24.29-2.67-34.37,5.85-4.98,4.21-8.78,9.84-12.93,14.98-2.94,3.65-5.97,7.09-10.98,9.75,8.78-13.88,18.39-25.74,30.9-35.09,9.17-6.85,18.62-12.99,30.29-14.64,1.88-.27,3.39-.51,4.46,1.64,.38,.76,2.18,1.55,2.86,1.25,.95-.41,2.13-1.91,2.03-2.8-.17-1.44-1.06-3.06-2.15-4.01-.46-.4-2.25,.69-3.4,1.18-.61,.26-1.11,.86-1.73,.97-6.41,1.21-12.84,2.34-19.28,3.5,7.16-5.82,14.39-11.73,21.68-17.57,.54-.43,1.65-.1,2.25-.5,1.01-.66,2.41-1.51,2.58-2.46,.19-1.06-.49-2.9-1.37-3.41-2.75-1.59-3.3-3.52-.69-5.18,2.42-1.54,2.46-3.55,1.39-5.44-.55-.97-2.57-1.78-3.74-1.57-2.42,.42-3.18,2.38-3.06,4.85,.05,1.03-.51,2.37-1.25,3.1-2.36,2.32-2.13,4.6,.87,6.2,3.72,1.98,3.74,2.44,.23,5.06-1.04,.78-2.06,1.59-3.13,2.34-4.95,3.47-9.91,6.93-14.86,10.39-.24-.16-.48-.33-.72-.49,2.79-4.27,3.07-8.81,1.23-13.26-2.84-6.86-4.21-13.76-1.84-21.17-6.25,4.81-11.96,9.9-14.75,17.38-2.3,6.16-2.08,12.82,4.45,17.34,4.26,2.96,4.13,4.88,.33,8.53-4.95,4.77-10.08,9.35-14.96,14.18-19.93,19.76-36.83,41.66-47.37,67.97-1.82,4.54-3.42,9.17-4.91,13.19-4.75-3.43-9.47-6.84-13.77-9.95,.97-2.89,1.98-5.87,3.3-9.79-3.56-.33-6.27-.58-8.96-.83-.93,1.68-2.83,3.64-2.45,4.95,.56,1.96,2.79,3.43,4.05,4.83-4.46,.07-7.56-2.17-8.8-6.77-.21-.78-.52-1.6-1-2.25-1.71-2.31-4.13-2.94-6.56-1.67-1.67,.88-4.12,2.54-4.14,3.89-.12,5.86,5.62,8.8,10.61,5.81,.59-.35,1.18-.68,1.9-1.09,1.06,1.12,2.01,2.11,2.99,3.14-.77,.69-1.4,1.26-2.03,1.82,6.9-1.76,12.71,.43,18.27,5.04-11.01-1.18-13.73-.47-16.02,4.06-2.38,4.71-1.22,13.47,1.61,16.69,3.92-4.46,7.96-8.98,11.86-13.62,.65-.78,.66-2.09,1.01-3.31,5.4-.53,7.88,1.98,6.68,7.24Z"/><path d="M232.39,343.66c1,.5,2.06,.88,3.09,1.32,.11-.2,.21-.41,.32-.61-1.14-.79-2.29-1.58-3.43-2.38-21.34-15.02-40.44-32.47-56.69-52.9-2.01-2.52-3.35-6.06-3.75-9.28-.86-7.01,3.13-11.81,8.69-15.5,5.04-3.35,10.42-6.52,12.92-12.32,1.94-4.51,3.53-9.3,4.41-14.12,1.25-6.83,4.64-11.43,11.15-13.83,1.99-.73,3.86-1.78,5.78-2.7,8.74-4.17,13.57-11.01,14.56-20.7,1.37-13.39,8.61-22.17,21.36-26.43,2.99-1,5.98-2.01,8.97-3.02l.03-.96c-5.31-.96-10.59-2.28-15.95-2.79-10.65-1.02-21.08,.23-30.68,5.33-12.59,6.69-20.06,26.21-14.18,37.96,2.41,4.82,1.64,8.51-1.67,11.85-2.45,2.46-5.51,4.37-8.44,6.29-5.14,3.36-10.66,6.17-15.52,9.87-5.95,4.53-10.03,10.6-9.69,18.47,.44,10.14,2.65,20.07,7.63,28.89,14.36,25.46,34.99,44.49,61.1,57.58Z"/><path d="M254.67,293.65c3.22-1.24,6.33-3.63,8.58-6.29,2.13-2.52,1.89-6.07-.24-8.93-2.13-2.86-5.16-3.09-8.34-2.24-6.42,1.71-9.49,6.5-7.67,12.93,1.04,3.66,.48,6.81-.54,10.28-1.09,3.7-1.68,7.6-2.01,11.45-.33,3.78-.07,7.6-.07,11.2-.13-.24-.48-.83-.76-1.45-4.97-10.93-8.45-22.27-9.92-34.24-.53-4.31-2.92-8.7-2.36-12.77,.65-4.79-1.77-5.66-4.9-6.92-2.96-1.19-5.89-2.47-8.83-3.71,6.94-4.17,14.49,2.52,21.42-2.96-3.2-2.34-6.03-4.69-9.12-6.63-5.78-3.63-11.99-4.13-18.36-1.7-8.06,3.08-13.3,11.64-10.73,18.8,1.86,5.18,5.07,9.87,7.82,15.06,5.02-5.81,6.13-12.4,7.61-19.26,.55,.89,.82,1.27,1.05,1.68,2.81,5.12,3.83,10.59,3.54,16.41-.06,1.12,1.15,3.3,1.61,3.25,1.37-.12,3.17-.78,3.88-1.84,1.7-2.55,1.06-5.12-1.03-7.41-.62-.68-.83-1.72-1.24-2.6,.98-.26,2.12-.95,2.9-.67,1.2,.43,2.61,1.32,3.11,2.4,1.03,2.22,1.93,4.65,2.17,7.07,1.65,16.74,6.14,32.69,13.04,48,.17,.37,.22,.8,.32,1.21-2.38-2.89-3.95-6.43-6.57-8.83-3.71-3.4-4.15-7.11-3.72-11.71,.67-7.18-2.9-11.89-9.93-13.26-6.58-1.28-13.26-2.03-19.74-2.99,2.55,5.78,4.94,11.65,7.69,17.34,3.16,6.53,8.99,9.67,15.7,8.15,3.37-.76,5.66,.21,7.38,2.66,2.78,3.96,5.33,8.09,7.81,12.25,6.26,10.49,12.78,20.79,21.74,29.26,.66,.63,1.46,1.12,2.19,1.67-7.42-11.18-13.13-22.99-17.76-35.3-3.9-10.37-5.4-21.03-2.46-32,.99-3.68,2.95-5.92,6.73-7.38Z"/><path d="M620.49,162.17c2.16,.94,4.13,2.35,5.17,2.95-1.46,3.7-3.59,6.61-3.48,9.44,.14,3.91,4.23,4.26,7.31,4.71-1.92,3.3-4.08,6.31-5.51,9.63-1.47,3.41-2.23,7.13-3.3,10.71-1.06,.14-2.19,.29-3.87,.51,.93,4.75,1.79,9.17,2.89,14.81-1.78-1.94-2.93-3.19-4.15-4.53-1.96,2.71-1.25,5.15,.58,7.19,1.88,2.1,4.17,3.3,7.27,2.12,2.62-1,5.4-1.55,8.13-2.25,3.11-.79,5.88-2.04,7.71-5.39-7.97,4.03-8.52,4.14-11.59,2.07,1.11-.8,2.13-1.56,3.17-2.28,4.16-2.91,7.64-6.44,9.31-11.33,1.05-3.08,2.39-6.38-.84-9.13-1.19-1.01-2.48-1.91-3.73-2.86-.95,1.36-1.9,2.71-2.85,4.07-1.73,1.24-3.68,2.28-5.13,3.79-1.66,1.73-2.87,3.89-4.48,6.15-1.49-14.24,11.06-29.92,21.69-34.84,7.54-3.49,12.3-8.87,14.79-16.97-2.76-.95-5.48-2.17-8.32-2.8-6.77-1.5-11.13,.99-12.84,7.77-.85,3.36-.64,7.02-.7,10.54-.08,4.58-1.65,7.12-6,9.17,2.55-4.87,2.19-6.65-2.38-10.08-1.76-1.32-2.08-2.72-1.16-4.58,.58-1.17,1.16-2.33,1.71-3.51,4.91-10.57-.87-21.93-12.31-24.19-3.56-.7-6.34,.82-7.62,4.19-3.65,9.6,1.15,20.83,10.52,24.92Zm8.01,38.13c-.21-2.83,2.3-3.01,5.08-1.14-.31-2.51-.56-4.52-.81-6.51h6.88c-3.01,6.81-5.26,12.99-10.6,17.33-2.29,1.86-4.05,1.52-5.26-1.79,3.35-1.5,5-3.81,4.71-7.89Z"/><path d="M196.54,112.88c3.75-7.5,7.16-14.99,10.03-22.68,1.87-5.01,.74-10.14-1.68-14.78-3.69-7.06-7.11-14.13-6.26-22.51-.51-.12-1.01-.23-1.52-.35-2.96,6-6.28,11.85-8.78,18.03-3.24,8.01-2.31,15.76,3.14,22.76,4.44,5.7,7.82,11.72,5.07,19.52Z"/><path d="M578.65,186.3c-.23,7.37,1.63,9.45,8.64,11.65,6,1.88,11.08,5.39,15.34,10.13,1.97,2.19,4.41,3.95,6.64,5.91,.31-.27,.62-.53,.93-.8-.66-1.29-1.3-2.59-2-3.86-1.06-1.96-2.39-3.82-3.15-5.89-.4-1.08,.18-2.51,.32-3.78,1.34,.43,2.9,.55,3.95,1.36,1.43,1.1,2.47,2.72,3.68,4.12-.71-2.93-1.76-5.67-3.26-8.13-1.97-3.23-6.2-3.37-8.23-.19-1.13,1.77-1.42,4.07-2.15,6.31-.45-.21-1.15-.61-1.89-.89-2.88-1.09-3.87-2.85-2.2-5.7,.35-.6,.51-1.31,.73-1.99,2.99-9.25-.79-15.7-10.33-17.35-1.93-.33-3.96-.05-6.25-.05-.28,3.28-.66,6.22-.75,9.17Z"/><path d="M253.8,213.85c-.24-1.73-.32-3.93-1.39-4.93-.75-.7-3.77-.33-4.53,.59-2.36,2.86-4.46,6.05-6.02,9.41-1.88,4.03-2.92,4.58-6.56,2-.58-.41-1.11-.9-1.71-1.26-1.9-1.14-6.03-.48-7.05,1.26-1.6,2.73,1.13,3.82,2.45,5.08,.83,.79,2.69,.52,4.12,.72-.8,13.35-.2,15.25,5.21,14.65-.74-2.11-1.44-4.13-2.2-6.28,5.15-1.16,10.07-2.23,14.98-3.37,4.16-.97,4.94-2.41,3.44-6.52-.47-1.28-1.36-2.41-1.88-3.32,.32-1.94,.58-3.37,.79-4.81,.16-1.07,.49-2.17,.35-3.2Z"/><path d="M599.89,178.66c2.21,1.91,5.23,3.03,8.04,4.07,3.26,1.2,6.09,2.37,5.31,6.67,1.35-2.46,2.77-4.89,4.03-7.4,3.19-6.34,1.24-14.4-4.27-18-4.49-2.93-10.7-1.74-14.64,2.81-2.51,2.9-2.1,8.71,1.53,11.85Z"/><path d="M647.47,182.63c-1.3,2.62-2.25,5.41-3.26,7.88,2.26,.65,4.38,1.13,6.41,1.88,4.24,1.58,8.17,.96,11.74-1.61,5.54-4,5.03-8.95-1.1-11.74-.86-.39-1.73-.78-2.62-1.06-5.26-1.64-8.72-.27-11.16,4.65Z"/><path d="M162.98,143.45c2.26-1.15,4.48-2.21,6.65-3.38,3.3-1.78,5.78-4.52,5.96-8.22,.1-2.15-.91-5.13-2.49-6.36-1.39-1.08-4.6-.94-6.43-.09-5.22,2.43-7.09,8.18-5.13,13.85,.46,1.31,.9,2.63,1.44,4.21Z"/><path d="M153.57,142.65c2.68-2.71,2.85-7.29,.37-9.53-2.28-2.06-7.36-1.55-9.35,.92-1.99,2.48-1.07,5.75,2.77,8.21,1.43,.91,3.47,.86,5.23,1.25l-.08,.07h.04s.03-.04,.04-.06c.33-.28,.68-.55,.98-.85Z"/><path d="M142.85,156.23c-3.87-.96-7.12,.48-8.94,4.18-1.61,3.28-.9,6.38,1.74,7.64,2.47,1.18,5.12-.18,6.71-3.47,.31-.63,.46-1.34,.81-1.95,1.19-2.1,2.44-4.18,3.66-6.26-1.33-.02-2.72,.18-3.98-.14Z"/><path d="M146.83,156.37s.08,0,.12,0l-.04-.04,.04,.04,.15-.14c-.07,.02-.15,.03-.22,.05l-.05,.09Z"/><path d="M277.34,58.83c.59,.5,.88,1.34,1.31,2.03-.39,.29-.78,.57-1.18,.86,1.06,1.3,1.91,2.97,3.27,3.76,.81,.47,3.28-.12,3.5-.76,.54-1.53,.25-3.38,.2-5.1-.03-.91-.02-1.95-.44-2.7-.96-1.71-1.95-3.53-3.4-4.76-.43-.37-2.72,.79-3.6,1.75-1.38,1.52-1.51,3.35,.34,4.93Z"/><path d="M600.7,257.95l-1.24-1.06c-2.98,3.71-6.28,7.23-8.79,11.24-1.08,1.72-.66,4.48-.52,6.75,.02,.4,2.96,1.08,3.02,.93,.81-1.77,2.41-4.47,1.73-5.38-2.14-2.87-.17-4.55,1.04-6.41,1.39-2.14,3.15-4.05,4.75-6.06Z"/><path d="M290.3,38.14c.26-.91-.15-2.51-.86-3.11-2.52-2.15-10.17-.24-12.35,3.66,3.95,.59,7.37,1.25,10.83,1.5,.78,.06,2.12-1.17,2.38-2.05Z"/><path d="M244.59,241.96c1.87,.69,4.66,1.04,6.09,.1,1.17-.77,.93-3.67,1.39-5.98-3,1.23-5.02,2.07-7.05,2.88-1.95,.78-2.1,2.38-.43,3Z"/><path d="M233,270.77c1.49,.97,2.9,2.49,4.49,2.7,.98,.13,2.23-1.73,3.36-2.69-1.4-1.02-2.8-2.03-4.67-3.39l-3.18,3.39Z"/><path d="M277.63,47.16c-.06,.77,2.14,2.56,2.7,2.33,1.26-.51,2.69-1.85,3-3.11,.25-1.02-1.04-2.41-1.64-3.64-.6,.31-1.2,.62-1.79,.93-.82,1.16-2.17,2.28-2.26,3.5Z"/><path d="M642.11,282.84c.37,1.34,1.48,2.47,2.28,3.69,.8-.77,1.6-1.55,2.97-2.87-1.63-1.47-2.72-2.46-3.8-3.45-.52,.89-1.64,1.94-1.44,2.63Z"/><path d="M283.07,32.34c.79,.19,1.98-1.28,3.84-2.63-1.85-1.26-2.87-2.48-3.89-2.48-.83,0-2.43,1.62-2.31,2.25,.22,1.12,1.35,2.61,2.36,2.86Z"/><path d="M686.65,275.98c-.62-.17-1.47,.55-3.3,1.32,2.02,1.05,3.02,1.91,4.09,2,.69,.06,1.47-1.02,2.21-1.59-.99-.61-1.93-1.44-3-1.74Z"/><path d="M611.27,217.65c.61,3.94,1.22,7.88,1.84,11.82,.79-4.13,.5-8.11-1.84-11.82Z"/><path d="M517.77,84.02c5.32-.04,9.64-3.77,9.62-8.32-.02-4.64-4.27-8.28-9.64-8.27-5.18,0-9.23,3.68-9.15,8.27,.09,4.72,4.1,8.36,9.17,8.32Z"/></g><g><path class="b" d="M411.9,497.64c2.86,1.23,5.79,2.48,8.82,3.79,0-1.84,.04-2.84,0-3.79h-8.82Z"/><path class="b" d="M433.62,506.28h.03c-.35,3.38,1.53,5.38,4.56,7.44,1.45-2.95,2.73-5.57,3.77-7.69-2.27-1.53-3.88-2.62-5.28-3.56-.85,1.05-1.95,2.42-3.07,3.8Z"/><path class="b" d="M427.05,502.21c1.26,2.88,3.28,4.4,6.47,4.08,.2-4.1-1.56-6.99-5.37-8.64h-3.34c.8,1.57,1.58,3.05,2.24,4.56Z"/><path d="M328.29,499.29c-4.77,.18-8.63,4.44-8.59,9.49,.03,4.32,3.65,8.15,7.68,8.13,3.47-.02,7.32-4.86,7.27-9.15-.05-4.54-3.09-8.59-6.36-8.47Z"/><path d="M353.3,509.97c-1.31-.16-3.08,.37-4.08,1.27-1.99,1.78-1.25,4.3,1.48,6.53-.23,1.62-.46,3.18-.76,5.31,4.45-2.86,6.26-6.45,5.39-10.26-.25-1.1-1.22-2.75-2.02-2.85Z"/><path d="M176.59,492.47v5.17h9.28c-6.03,7.66-12.16,15.24-18.41,22.75-3.2,3.84-5.73,8.37-7.84,12.92-1.58,3.4,.72,5.75,4.32,4.57,3.66-1.2,7.5-2.61,10.5-4.91,7.69-5.89,15.09-12.18,22.36-18.59,6.15-5.43,12.01-11.19,18.06-16.73h9.84c-.16,.56-.33,1.11-.52,1.66-2.03,5.66-4.66,11.14-6.3,16.91-1.11,3.88-1.38,8.13-1.22,12.19,.14,3.54,2.64,5.03,6.02,3.85,3.19-1.12,6.36-2.62,9.13-4.55,7.6-5.28,13.32-12.42,18.45-20,2.24-3.3,4.36-6.65,6.39-10.06h82.33c-3.61,5.46-2.53,10.74,3.45,15.27,1.87-2.68,4.78-5.15,5.33-8.06,.42-2.28,.02-4.71-.46-7.21h9.27c.67,.36,1.49,.72,2.53,1.15v3.38c.82-1.61,1.56-3.08,2.3-4.53h1.58c-1.32,8.06-2.58,16.14-4,24.18-.73,4.12-1.61,8.19,1.05,11.97,3.21,4.58,7.84,7.18,12.69,9.52,.63-2.92,.95-5.53,1.76-7.97,2.39-7.21,1.16-13.16-5.2-17.87-4.83-3.57-6.94-8.79-6.55-14.6,.12-1.74,.4-3.46,.75-5.23h23.81c-.63,4.52-1.38,9.03-1.68,13.58-1.24,18.78-.52,37.42,6.08,55.34,1.71,4.64,4.1,9.02,6.17,13.53,.33-.13,.65-.26,.98-.38-3.93-13.36-5.7-27.02-6.09-40.88-.4-13.93,.81-27.7,3.53-41.17h.07c9.09,4.5,17.76,8.75,26.39,13.09,8.74,4.39,16.16,10.28,21,19.02,.22,.4,.62,.7,.93,1.04l.78-.47c-1.94-4.1-3.88-8.19-5.82-12.29,7.58-3.68,8.6-8.75,2.96-15.05-1.26-1.41-2.49-2.86-3.74-4.28-.33-.37-.66-.72-1-1.06h219.76v-5.17H176.59Zm244.12,8.96c-3.03-1.31-5.96-2.56-8.82-3.79h8.82c.04,.95,0,1.95,0,3.79Zm21.25,4.61c-1.03,2.11-2.32,4.74-3.77,7.69-3.03-2.06-4.9-4.07-4.56-7.45h-.03c1.11-1.38,2.22-2.75,3.07-3.8,1.4,.95,3.02,2.03,5.28,3.56Zm-8.45,.25c-3.2,.32-5.22-1.19-6.47-4.08-.66-1.52-1.44-2.99-2.24-4.56h3.34c3.81,1.65,5.57,4.54,5.37,8.64Z"/></g></svg>